# xmcd
#
# Track frame offsets: 
#        150
#        13499
#        27435
#        41133
#        55529
#        70013
#        81438
#        96178
#        109122
#        123592
#        134962
#        146815
#        165495
#        178912
#
# Disc length: 2597 seconds
#
# Revision: 0
# Processed by: cddbd v1.5.2PL0 Copyright (c) Steve Scherf et al.
# Submitted via: ExactAudioCopy v0.99pb5
#
DISCID=d30a230e
DTITLE=Miss Leslie - Wrong Is What I Do Best
DYEAR=2010
DGENRE=Country
TTITLE0=I Need Me (A Whole Lot More Than I Need You)
TTITLE1=Turn Around
TTITLE2=Drunk Dialer
TTITLE3=Let's Start Over (w Jason Allen)
TTITLE4=I Can't Live With You, But I Can't Love Without You
TTITLE5=Wrong Is What I Do Best
TTITLE6=Anyone
TTITLE7=All You Do Is Make Me Cry
TTITLE8=Every Tuesday Night
TTITLE9=Lie, Lie, Lie
TTITLE10=There's Two People Here Not Talkin
TTITLE11=Some Things They Can't Take Away
TTITLE12=She Gave Up on Herself
TTITLE13=The Last Time I Drank
EXTD=
EXTT0=
EXTT1=
EXTT2=
EXTT3=
EXTT4=
EXTT5=
EXTT6=
EXTT7=
EXTT8=
EXTT9=
EXTT10=
EXTT11=
EXTT12=
EXTT13=
PLAYORDER=
